<svg width="17" height="14" viewBox="0 0 17 14" fill="none" xmlns="http://www.w3.org/2000/svg">
<path d="M7.98 4.42105L10.3158 6.74947C10.3158 6.71263 10.3158 6.66842 10.3158 6.63158C10.3158 6.04531 10.0829 5.48305 9.66834 5.0685C9.25379 4.65395 8.69153 4.42105 8.10526 4.42105C8.06105 4.42105 8.02421 4.42105 7.98 4.42105ZM4.81158 5.01053L5.95368 6.15263C5.91684 6.30737 5.89474 6.46211 5.89474 6.63158C5.89474 7.21785 6.12763 7.7801 6.54218 8.19466C6.95674 8.60921 7.51899 8.8421 8.10526 8.8421C8.26737 8.8421 8.42947 8.82 8.58421 8.78316L9.72632 9.92526C9.23263 10.1684 8.68737 10.3158 8.10526 10.3158C7.12815 10.3158 6.19106 9.92763 5.50013 9.23671C4.80921 8.54579 4.42105 7.60869 4.42105 6.63158C4.42105 6.04947 4.56842 5.50421 4.81158 5.01053ZM0.736842 0.935789L2.41684 2.61579L2.74842 2.94737C1.53263 3.90526 0.574737 5.15789 0 6.63158C1.27474 9.86632 4.42105 12.1579 8.10526 12.1579C9.24737 12.1579 10.3379 11.9368 11.3326 11.5389L11.6495 11.8484L13.8011 14L14.7368 13.0642L1.67263 0L0.736842 0.935789ZM8.10526 2.94737C9.08238 2.94737 10.0195 3.33553 10.7104 4.02645C11.4013 4.71737 11.7895 5.65447 11.7895 6.63158C11.7895 7.10316 11.6937 7.56 11.5242 7.97263L13.6832 10.1316C14.7884 9.21053 15.6726 8.0021 16.2105 6.63158C14.9358 3.39684 11.7895 1.10526 8.10526 1.10526C7.07368 1.10526 6.08632 1.28947 5.15789 1.62105L6.75684 3.20526C7.17684 3.04316 7.62632 2.94737 8.10526 2.94737Z" fill="#636363"/>
</svg>
