<svg width="59" height="59" viewBox="0 0 59 59" fill="none" xmlns="http://www.w3.org/2000/svg">
<g clip-path="url(#clip0_78_836)">
<path d="M59 24.6602V24.7754C57.6541 25.1534 56.3116 25.5452 54.9599 25.9012C54.6257 25.9888 54.5059 26.1236 54.4724 26.4774C54.1867 29.4954 53.879 32.5111 53.5748 35.5268C53.4757 36.5109 53.3685 37.4938 53.2613 38.5102C49.0991 37.6678 45.3851 38.456 42.2576 41.2758C39.1301 44.0956 37.9501 47.7439 38.4019 51.9419H20.5947C21.0556 47.7324 19.8825 44.106 16.732 41.2712C13.5815 38.4364 9.87444 37.6171 5.74904 38.5113C5.71102 38.2106 5.67645 37.9836 5.6534 37.7554C5.27658 34.0149 4.894 30.2732 4.53678 26.5304C4.49875 26.1363 4.36392 25.9796 3.98711 25.8816C2.65269 25.5359 1.3275 25.1487 0 24.7777V24.6625C0.395254 23.6334 0.791657 22.6044 1.19267 21.5615L4.09889 22.2068C3.93065 20.5371 3.77969 18.9572 3.59301 17.382C3.57572 17.2379 3.34065 17.0754 3.17125 16.9994C1.99184 16.498 1.03987 15.5776 0.498967 14.4158C0.290393 13.9722 0.163633 13.4939 0 13.0238V10.4863H59V13.0215C58.9562 13.1425 58.9021 13.2623 58.8698 13.3868C58.5241 14.7465 57.8327 15.9438 56.572 16.55C55.5729 17.0316 55.248 17.6585 55.2272 18.6899C55.2042 19.8318 55.0279 20.9715 54.9092 22.2034L57.8131 21.5696C58.221 22.6297 58.6105 23.6449 59 24.6602ZM33.9941 27.7715L29.5 20.0001L25.0116 27.7715L28.002 29.5C28.4986 28.6484 28.9745 27.8291 29.5 26.9234C30.0312 27.8372 30.5141 28.6669 30.998 29.5046L33.9941 27.7715ZM27.7312 38.1184V34.6729H25.0324C25.4622 33.9146 25.8528 33.2232 26.2677 32.4903L23.2773 30.7676L19.0333 38.1195L27.7312 38.1184ZM35.7227 30.7676L32.7392 32.4961C33.1621 33.2405 33.5459 33.9181 33.9838 34.6855H31.27V38.0942H39.9552L35.7227 30.7676Z" fill="#489842"/>
<path d="M7.95137 0H51.049C51.1804 0.159023 51.2991 0.330722 51.4443 0.475918C53.424 2.46333 55.4049 4.44613 57.3869 6.42432C57.516 6.55338 57.6347 6.69281 57.8121 6.88525H1.19287C1.36687 6.69512 1.48672 6.55453 1.61579 6.42432C3.59705 4.44152 5.57793 2.45872 7.55842 0.475918C7.70362 0.331875 7.82116 0.159023 7.95137 0Z" fill="#489842"/>
<path d="M49.3204 58.9999C48.485 58.7418 47.6126 58.5655 46.8187 58.2129C44.957 57.3889 43.4485 55.9305 42.5621 54.0977C41.6757 52.2649 41.469 50.1769 41.9788 48.2059C42.4902 46.2466 43.6697 44.5274 45.3137 43.3452C46.9578 42.1629 48.9631 41.592 50.9832 41.7309C54.9012 42.004 58.2292 45.0393 58.878 48.9388C58.9056 49.1059 58.9563 49.2696 58.9932 49.4355V51.3945C58.9494 51.4961 58.9132 51.6009 58.8849 51.7079C58.1739 55.3436 56.0294 57.6747 52.4882 58.7303C52.1264 58.8386 51.7553 58.9112 51.3877 58.9999H49.3204ZM52.0572 48.6623H48.6682V52.0421H52.0572V48.6623Z" fill="#489842"/>
<path d="M0 49.4356C0.0921875 49.0277 0.17055 48.6174 0.276565 48.213C0.824412 46.1088 2.14178 44.2867 3.96824 43.107C5.7947 41.9273 7.99731 41.4757 10.1406 41.8416C14.4043 42.5331 17.5156 46.4844 17.2771 50.8899C17.0547 54.8286 14.0183 58.2165 10.1084 58.8848C9.96336 58.9149 9.82023 58.9534 9.67969 59H7.60547C7.50374 58.9564 7.39899 58.9202 7.29203 58.8917C3.68174 58.1853 1.35285 56.0627 0.284626 52.5538C0.169391 52.1747 0.0944922 51.7829 0 51.4015V49.4356ZM10.3457 48.6589H6.94978V52.0457H10.3457V48.6589Z" fill="#489842"/>
</g>
<defs>
<clipPath id="clip0_78_836">
<rect width="59" height="59" fill="white"/>
</clipPath>
</defs>
</svg>
