<svg width="32" height="32" viewBox="0 0 32 32" fill="none" xmlns="http://www.w3.org/2000/svg">
<path d="M15.0625 0H16.9375C17.0166 0.0230727 17.0972 0.0404095 17.1787 0.0518751C19.4219 0.203125 21.5463 0.795625 23.5106 1.88062C28.0156 4.37062 30.7756 8.15063 31.75 13.215C31.8669 13.8244 31.92 14.4462 32 15.0625V16.9375C31.9765 17.0263 31.9588 17.1165 31.9469 17.2075C31.7906 19.4394 31.1969 21.5538 30.12 23.5088C27.6306 28.0144 23.8506 30.7744 18.7869 31.75C18.1769 31.8675 17.5544 31.9206 16.9375 32H15.0625C14.9834 31.977 14.9028 31.9597 14.8213 31.9481C12.5781 31.7969 10.4538 31.2044 8.48938 30.1194C3.98438 27.6294 1.22438 23.8494 0.25 18.785C0.133125 18.1756 0.08 17.5537 0 16.9375V15.0625C0.0234656 14.9737 0.0412089 14.8835 0.0531235 14.7925C0.209373 12.5606 0.800001 10.4462 1.88 8.49125C4.36938 3.98563 8.14937 1.22563 13.2131 0.253125C13.8231 0.135625 14.4456 0.0825 15.0625 0ZM4.765 11.9794H27.235C25.7275 7.6125 21.4225 4.00375 16 4.00375C10.5775 4.00375 6.27437 7.60813 4.765 11.9794ZM4 15.9406C4.0625 19.34 5.23375 22.1787 7.58187 24.5031C9.35312 26.2569 11.4831 27.3469 13.9487 27.7762C13.961 27.74 13.9702 27.7028 13.9762 27.665C13.9087 25.4031 13.3906 23.2556 12.2644 21.2838C10.87 18.8419 8.92062 17.0469 6.14812 16.2969C5.46562 16.1131 4.75 16.0625 4 15.9406ZM17.9594 27.8C20.9188 27.2575 23.3019 25.9 25.1756 23.6869C27.0494 21.4737 27.9644 18.9112 27.9931 15.9956C27.5994 16.0238 27.2431 16.0256 26.895 16.0775C24.3713 16.4525 22.3794 17.7344 20.8013 19.7025C19.5206 21.3 18.7131 23.1219 18.3225 25.1219C18.1544 25.9825 18.0831 26.8625 17.9594 27.8ZM15.9912 14C15.4646 14.0057 14.9611 14.2176 14.5889 14.5902C14.2166 14.9628 14.0052 15.4665 14 15.9931C14.0018 16.5251 14.2141 17.0348 14.5905 17.4109C14.9668 17.7869 15.4767 17.9987 16.0088 18C16.5354 17.9943 17.0389 17.7824 17.4111 17.4098C17.7834 17.0372 17.9948 16.5335 18 16.0069C17.9982 15.4749 17.7859 14.9652 17.4095 14.5891C17.0332 14.2131 16.5233 14.0013 15.9912 14Z" fill="#F0C65B"/>
</svg>
