<svg width="23" height="30" viewBox="0 0 23 30" fill="none" xmlns="http://www.w3.org/2000/svg">
<path d="M0 0H22V1.75773H20.3079C20.2513 2.34481 20.2078 2.90841 20.1382 3.46849C19.9408 5.01839 19.5161 6.49609 18.8018 7.87867C18.0932 9.24716 17.1051 10.3767 16.0266 11.4323C15.4045 12.0399 14.7671 12.6393 14.2044 13.3039C13.2995 14.3712 13.2995 15.6311 14.2044 16.6949C14.8067 17.3994 15.4775 18.0499 16.1516 18.6851C18.3352 20.7429 19.6925 23.2567 20.1105 26.299C20.1976 26.9354 20.2462 27.5777 20.3152 28.2423H22.0034V30H0.0260149V28.2282H1.69722C1.75378 27.6411 1.79563 27.0757 1.86689 26.5162C2.09877 24.7368 2.61794 23.0601 3.53697 21.526C4.20884 20.4047 5.07244 19.4595 5.99033 18.5577C6.60396 17.9542 7.23455 17.3636 7.79218 16.7061C8.70612 15.6258 8.70385 14.3759 7.78822 13.2916C7.24473 12.6458 6.60622 12.0922 6.03162 11.4751C5.37275 10.7677 4.6856 10.0785 4.10195 9.30704C2.71069 7.46712 2.05013 5.31839 1.80751 3.01644C1.76396 2.60548 1.73738 2.18806 1.70118 1.75069H0.00169659L0 0ZM3.41311 1.77358C3.45846 3.06163 3.67699 4.33678 4.06237 5.56203C4.13872 5.80098 4.24391 5.86497 4.47691 5.86438C8.82036 5.85734 13.1636 5.85558 17.5067 5.8591C17.5632 5.8591 17.6271 5.87671 17.6763 5.85499C17.7499 5.82035 17.8505 5.77397 17.8737 5.70763C18.3177 4.44305 18.5309 3.13268 18.5829 1.77417L3.41311 1.77358ZM10.1432 15.6012C9.96617 16.6397 9.45547 17.5027 8.75023 18.2431C8.15018 18.8748 7.52185 19.4759 6.89918 20.0859C6.17075 20.7975 5.50509 21.5659 4.98648 22.456C4.70031 22.9468 4.46504 23.4693 4.20715 23.9777L4.27332 24.0223L10.1432 21.5207V15.6012ZM17.7815 24.0475C17.747 23.9507 17.7335 23.9084 17.7171 23.8667C17.3212 22.8652 16.7924 21.9411 16.077 21.1556C15.3304 20.3337 14.5364 19.5558 13.7486 18.7749C12.8488 17.8826 12.0757 16.9168 11.8608 15.59V21.5196L17.7815 24.0475Z" fill="#C8C8C8"/>
</svg>
