<svg width="147" height="32" viewBox="0 0 147 32" fill="none" xmlns="http://www.w3.org/2000/svg">
<path d="M46.242 22H48.762V9.436H46.242V22ZM58.2358 22H60.7558V16.15C60.7558 13.396 59.0998 11.884 56.7778 11.884C55.4998 11.884 54.4198 12.424 53.7718 13.27V12.028H51.2518V22H53.7718V16.492C53.7718 14.89 54.6538 14.026 56.0218 14.026C57.3538 14.026 58.2358 14.89 58.2358 16.492V22ZM69.9612 15.142V11.488H71.9592C73.3812 11.488 74.0112 12.172 74.0112 13.324C74.0112 14.44 73.3812 15.142 71.9592 15.142H69.9612ZM76.6032 13.324C76.6032 11.146 75.0912 9.436 72.0672 9.436H67.4412V22H69.9612V17.176H72.0672C75.3072 17.176 76.6032 15.232 76.6032 13.324ZM80.9124 17.032C80.9124 15.106 81.8124 14.53 83.3064 14.53H83.9724V11.884C82.5864 11.884 81.5424 12.55 80.9124 13.576V12.028H78.3924V22H80.9124V17.032ZM95.2997 17.014C95.2997 13.864 93.0497 11.866 90.1697 11.866C87.2897 11.866 85.0397 13.864 85.0397 17.014C85.0397 20.146 87.2177 22.162 90.0977 22.162C92.9957 22.162 95.2997 20.146 95.2997 17.014ZM87.5957 17.014C87.5957 15.016 88.8017 14.062 90.1337 14.062C91.4657 14.062 92.7077 15.016 92.7077 17.014C92.7077 18.994 91.4297 19.966 90.0977 19.966C88.7477 19.966 87.5957 18.994 87.5957 17.014ZM96.5002 16.978C96.5002 20.092 98.5163 22.162 101.054 22.162C102.62 22.162 103.754 21.388 104.348 20.524V22.072C104.348 23.926 103.268 24.718 101.882 24.718C100.622 24.718 99.6863 24.124 99.4343 23.224H96.9323C97.1843 25.51 99.1463 26.914 101.954 26.914C105.23 26.914 106.886 24.772 106.886 22.072V12.028H104.348V13.45C103.754 12.586 102.62 11.866 101.054 11.866C98.5163 11.866 96.5002 13.864 96.5002 16.978ZM104.348 17.014C104.348 18.904 103.088 19.948 101.702 19.948C100.352 19.948 99.0743 18.868 99.0743 16.978C99.0743 15.088 100.352 14.08 101.702 14.08C103.088 14.08 104.348 15.124 104.348 17.014ZM111.867 17.032C111.867 15.106 112.767 14.53 114.261 14.53H114.927V11.884C113.541 11.884 112.497 12.55 111.867 13.576V12.028H109.347V22H111.867V17.032ZM120.909 13.936C122.205 13.936 123.249 14.764 123.285 16.078H118.551C118.749 14.71 119.703 13.936 120.909 13.936ZM125.643 18.868H122.925C122.601 19.534 122.007 20.074 120.927 20.074C119.667 20.074 118.659 19.246 118.533 17.77H125.823C125.877 17.446 125.895 17.122 125.895 16.798C125.895 13.828 123.861 11.866 120.981 11.866C118.029 11.866 115.977 13.864 115.977 17.014C115.977 20.146 118.083 22.162 120.981 22.162C123.447 22.162 125.103 20.704 125.643 18.868ZM135.474 19.156C135.402 15.502 129.876 16.636 129.876 14.818C129.876 14.242 130.362 13.864 131.298 13.864C132.288 13.864 132.9 14.386 132.972 15.16H135.384C135.24 13.18 133.782 11.866 131.37 11.866C128.904 11.866 127.428 13.198 127.428 14.854C127.428 18.508 133.062 17.374 133.062 19.156C133.062 19.732 132.522 20.182 131.532 20.182C130.524 20.182 129.822 19.606 129.732 18.85H127.194C127.302 20.704 129.048 22.162 131.55 22.162C133.98 22.162 135.474 20.866 135.474 19.156ZM145.283 19.156C145.211 15.502 139.685 16.636 139.685 14.818C139.685 14.242 140.171 13.864 141.107 13.864C142.097 13.864 142.709 14.386 142.781 15.16H145.193C145.049 13.18 143.591 11.866 141.179 11.866C138.713 11.866 137.237 13.198 137.237 14.854C137.237 18.508 142.871 17.374 142.871 19.156C142.871 19.732 142.331 20.182 141.341 20.182C140.333 20.182 139.631 19.606 139.541 18.85H137.003C137.111 20.704 138.857 22.162 141.359 22.162C143.789 22.162 145.283 20.866 145.283 19.156Z" fill="#F0C65B"/>
<path d="M15.0625 0H16.9375C17.0166 0.0230727 17.0972 0.0404095 17.1787 0.0518751C19.4219 0.203125 21.5463 0.795625 23.5106 1.88062C28.0156 4.37062 30.7756 8.15063 31.75 13.215C31.8669 13.8244 31.92 14.4463 32 15.0625V16.9375C31.9765 17.0263 31.9588 17.1165 31.9469 17.2075C31.7906 19.4394 31.1969 21.5538 30.12 23.5088C27.6306 28.0144 23.8506 30.7744 18.7869 31.75C18.1769 31.8675 17.5544 31.9206 16.9375 32H15.0625C14.9834 31.977 14.9028 31.9597 14.8213 31.9481C12.5781 31.7969 10.4538 31.2044 8.48938 30.1194C3.98438 27.6294 1.22438 23.8494 0.25 18.785C0.133125 18.1756 0.08 17.5537 0 16.9375V15.0625C0.0234656 14.9737 0.0412089 14.8835 0.0531235 14.7925C0.209373 12.5606 0.800001 10.4463 1.88 8.49125C4.36938 3.98563 8.14937 1.22563 13.2131 0.253125C13.8231 0.135625 14.4456 0.0825 15.0625 0ZM4.765 11.9794H27.235C25.7275 7.6125 21.4225 4.00375 16 4.00375C10.5775 4.00375 6.27437 7.60813 4.765 11.9794ZM4 15.9406C4.0625 19.34 5.23375 22.1787 7.58187 24.5031C9.35312 26.2569 11.4831 27.3469 13.9487 27.7762C13.961 27.74 13.9702 27.7028 13.9762 27.665C13.9087 25.4031 13.3906 23.2556 12.2644 21.2838C10.87 18.8419 8.92062 17.0469 6.14812 16.2969C5.46562 16.1131 4.75 16.0625 4 15.9406ZM17.9594 27.8C20.9188 27.2575 23.3019 25.9 25.1756 23.6869C27.0494 21.4737 27.9644 18.9112 27.9931 15.9956C27.5994 16.0237 27.2431 16.0256 26.895 16.0775C24.3713 16.4525 22.3794 17.7344 20.8013 19.7025C19.5206 21.3 18.7131 23.1219 18.3225 25.1219C18.1544 25.9825 18.0831 26.8625 17.9594 27.8ZM15.9912 14C15.4646 14.0057 14.9611 14.2176 14.5889 14.5902C14.2166 14.9628 14.0052 15.4665 14 15.9931C14.0018 16.5251 14.2141 17.0348 14.5905 17.4109C14.9668 17.7869 15.4767 17.9987 16.0088 18C16.5354 17.9943 17.0389 17.7824 17.4111 17.4098C17.7834 17.0372 17.9948 16.5335 18 16.0069C17.9982 15.4749 17.7859 14.9652 17.4095 14.5891C17.0332 14.2131 16.5233 14.0013 15.9912 14Z" fill="#F0C65B"/>
</svg>
