<svg width="84" height="45" viewBox="0 0 84 45" fill="none" xmlns="http://www.w3.org/2000/svg">
<g clip-path="url(#clip0_78_232)">
<path d="M84 14.2169V14.5563C83.8846 14.838 83.7489 15.1147 83.6606 15.4049C81.214 22.8045 78.769 30.2057 76.3257 37.6087C75.8913 38.9274 75.8031 38.9664 74.422 38.644C73.8485 34.026 71.4476 31.039 67.5739 30.1226C63.5018 29.1569 60.2254 30.7098 57.3104 35.0053C55.2167 31.2274 52.0302 29.2859 47.7341 30.0309C43.0104 30.849 40.6418 34.0362 40.1989 38.6949H25.5952V31.409H27.1731C27.2022 31.2787 27.2226 31.1466 27.2342 31.0136C27.2342 24.3319 27.28 17.6519 27.2138 10.9719C27.1867 8.19027 25.8089 6.10956 23.218 5.03187C22.2594 4.63134 21.1412 4.4803 20.091 4.45823C16.6771 4.38865 13.2616 4.44296 9.84611 4.42429C8.52945 4.42429 7.61661 3.51631 7.59116 2.28758C7.56401 1.0215 8.48364 0.0812777 9.81897 0.0235745C9.9598 0.0235745 10.1006 0.0235745 10.2415 0.0235745C31.1553 0.0235745 52.0681 0.0184837 72.9797 0.00830078C73.5668 0.00830078 73.8892 0.220445 74.2099 0.671888C76.6746 4.13521 79.1513 7.59175 81.6398 11.0415C82.4101 12.1107 83.2127 13.1578 84 14.2169ZM65.3835 5.93475V6.96323C65.3835 13.1363 65.3835 19.3083 65.3835 25.4792C65.3636 25.7624 65.375 26.047 65.4174 26.3277C65.5871 27.0439 66.0299 27.4699 66.7934 27.4377C67.557 27.4054 67.9812 26.9676 68.0762 26.2293C68.1009 25.9471 68.106 25.6636 68.0914 25.3807V5.99076C69.4488 5.68018 70.3685 5.91779 71.1948 7.09391C73.1239 9.83312 75.2313 12.4484 77.2691 15.113C77.4306 15.3435 77.6147 15.5572 77.8188 15.7511C78.3278 16.194 78.9098 16.2314 79.4528 15.8512C80.0262 15.4524 80.218 14.8771 79.9261 14.2186C79.7873 13.9426 79.6164 13.684 79.4171 13.4481C77.0926 10.3932 74.7426 7.37055 72.4605 4.297C71.8616 3.49255 71.2066 3.15991 70.1937 3.16161C56.7624 3.18989 43.3316 3.19668 29.9015 3.18197C29.6185 3.17218 29.3352 3.17955 29.0531 3.20404C28.3744 3.2838 27.974 3.68433 27.8976 4.34961C27.8179 5.05054 28.1182 5.57327 28.8105 5.77523C29.1658 5.86037 29.5312 5.89634 29.8964 5.88214C31.8086 5.89233 33.7191 5.88214 35.7263 5.88214V6.95984C35.7263 15.5293 35.7263 24.0971 35.7263 32.6632C35.7126 32.9461 35.7177 33.2296 35.7416 33.5118C35.8332 34.211 36.2337 34.6404 36.9497 34.6998C37.6657 34.7592 38.156 34.4215 38.3512 33.7409C38.4239 33.4113 38.4507 33.0732 38.4309 32.7362C38.4309 24.1373 38.4309 15.5418 38.4309 6.94965V5.93136H45.5894V6.89704C45.5894 13.0702 45.5894 19.2421 45.5894 25.413C45.5724 25.7778 45.6055 26.1433 45.6878 26.4992C45.8846 27.1882 46.3988 27.4988 47.1046 27.4258C47.7833 27.3562 48.1752 26.9523 48.2686 26.287C48.2991 25.9786 48.3076 25.6683 48.294 25.3587C48.294 19.215 48.294 13.0707 48.294 6.9259V5.93815H55.5102V6.9819C55.5102 14.085 55.5102 21.1871 55.5102 28.288C55.5102 29.3062 56.0023 29.9104 56.8116 29.9342C57.6209 29.9579 58.1876 29.3079 58.2148 28.2778C58.2148 28.0809 58.2148 27.8823 58.2148 27.6855V5.93475H65.3835Z" fill="#B9B9B9"/>
<path d="M64.5265 44.9999C64.2636 44.9133 64.0023 44.8302 63.7376 44.7436C62.2885 44.3287 61.0394 43.4014 60.2226 42.1343C59.4058 40.8671 59.077 39.3464 59.2972 37.8549C59.718 34.8696 62.3513 32.5937 65.4055 32.5818C66.9124 32.5677 68.3732 33.1017 69.5159 34.0845C70.6586 35.0674 71.4054 36.432 71.6172 37.9245C71.8197 39.4053 71.4822 40.9096 70.6664 42.1619C69.8507 43.4142 68.6113 44.3307 67.1751 44.7436C66.9105 44.8234 66.6509 44.9133 66.3896 45.005L64.5265 44.9999Z" fill="#B9B9B9"/>
<path d="M48.2703 44.9999C48.0327 44.9253 47.7969 44.8455 47.5577 44.7776C46.0903 44.3746 44.8205 43.4494 43.9872 42.1758C43.1539 40.9023 42.8144 39.3681 43.0325 37.8617C43.421 34.9019 46.0747 32.6005 49.1254 32.5819C50.632 32.5667 52.0928 33.0994 53.236 34.0809C54.3793 35.0624 55.1272 36.4259 55.3406 37.9177C55.7953 40.9522 53.8525 43.9036 50.8357 44.7674C50.5965 44.8353 50.364 44.9219 50.1299 44.9999H48.2703Z" fill="#B9B9B9"/>
<path d="M11.1848 44.9999C10.1956 44.5535 9.09276 44.2582 8.2376 43.6286C5.90121 41.9111 5.20554 38.8409 6.39665 36.2154C6.97264 34.9474 7.95734 33.9094 9.19307 33.2675C10.4288 32.6256 11.8441 32.4171 13.2124 32.6752C16.0018 33.1843 18.1329 35.652 18.2687 38.5473C18.3993 41.3306 16.555 43.8883 13.8215 44.7216C13.5602 44.8013 13.3125 44.9065 13.0478 44.9999H11.1848Z" fill="#B9B9B9"/>
<path d="M3.06598 38.5459C1.28102 37.8891 0.122153 36.6638 0.0678577 34.8665C-0.0560036 30.7611 0.0288362 26.6472 0.0288362 22.3924H1.04687C5.56017 22.3924 10.0729 22.3924 14.5851 22.3924C17.8937 22.3924 19.6261 20.6427 19.6278 17.3214C19.6278 15.1558 19.6278 12.988 19.6278 10.8179C21.0734 10.9248 22.4308 12.2808 22.6971 13.8727C22.7636 14.2897 22.7954 14.7115 22.7922 15.1337C22.7989 22.7143 22.7989 30.2916 22.7922 37.8654V38.714H21.0496C20.6441 32.8028 16.1817 29.8888 12.1333 29.8396C7.43166 29.7886 4.31138 32.7502 3.06598 38.5459Z" fill="#B9B9B9"/>
<path d="M16.8993 10.6868C16.8993 13.1714 16.9451 15.6713 16.8756 18.1678C16.8484 19.1692 16.0764 19.68 14.8921 19.6817C10.3245 19.6896 5.75576 19.6896 1.1859 19.6817C1.01623 19.6817 0.856734 19.6596 0.693848 19.6478C1.14178 13.9351 9.63052 9.23572 16.8993 10.6868Z" fill="#B9B9B9"/>
</g>
<defs>
<clipPath id="clip0_78_232">
<rect width="84" height="45" fill="white"/>
</clipPath>
</defs>
</svg>
