<svg width="56" height="55" viewBox="0 0 56 55" fill="none" xmlns="http://www.w3.org/2000/svg">
<path d="M26.1844 2.5H26.0162L25.8494 2.52255C25.6486 2.5497 25.4213 2.57758 25.1778 2.60744C24.5707 2.68189 23.8631 2.76866 23.216 2.8872L23.2137 2.88762C16.2331 4.1729 10.7146 7.84062 6.73528 13.6499L6.73431 13.6513C4.37865 17.0952 3.05829 20.924 2.62059 25.0065L2.61985 25.0135C2.59931 25.2104 2.57656 25.3979 2.55109 25.6077C2.54037 25.696 2.52918 25.7882 2.51747 25.8868L2.5 26.0338V26.1818V28.8185V28.9933L2.5243 29.1663C2.55332 29.3728 2.58356 29.6139 2.61626 29.8745C2.69088 30.4692 2.77826 31.1656 2.89283 31.7855C4.17721 38.7664 7.84515 44.2841 13.6543 48.2633L13.6557 48.2643C17.0997 50.62 20.9293 51.9403 25.0108 52.378L25.018 52.3787C25.215 52.3993 25.4026 52.4221 25.6126 52.4476C25.7007 52.4582 25.7928 52.4694 25.8912 52.4811L26.0382 52.4986H26.1862H28.8229H28.9912L29.1579 52.476C29.3575 52.4491 29.5834 52.4213 29.8252 52.3917C30.4333 52.3171 31.1425 52.2301 31.7893 52.111C38.7699 50.8257 44.2884 47.158 48.2677 41.3487L48.2687 41.3473C50.6243 37.9034 51.9447 34.0746 52.3824 29.9921L52.3831 29.985C52.4037 29.7881 52.4264 29.6006 52.4519 29.3906C52.4626 29.3024 52.4738 29.2103 52.4855 29.1118L52.503 28.9648V28.8168V26.18V26.0118L52.4804 25.845C52.4536 25.6468 52.4261 25.4227 52.3967 25.1828C52.3219 24.574 52.2347 23.8631 52.1145 23.2131C50.8302 16.2321 47.1622 10.7145 41.3531 6.73527L41.3517 6.73431C37.9077 4.3786 34.0781 3.05829 29.9965 2.62059L29.9894 2.61985C29.7889 2.59892 29.5963 2.57554 29.3813 2.54945C29.2973 2.53924 29.2098 2.52862 29.1171 2.51757L28.9696 2.5H28.8212H26.1844ZM23.1613 32.2366L24.8465 33.9207L26.6097 32.3185L37.426 22.49L37.6094 22.6915L24.9252 34.2238L18.5711 27.864L18.6783 27.7567L23.1613 32.2366Z" fill="#489842" stroke="white" stroke-width="5"/>
</svg>
