<svg width="65" height="65" viewBox="0 0 65 65" fill="none" xmlns="http://www.w3.org/2000/svg">
<g clip-path="url(#clip0_1304_151)">
<path d="M51.543 34.4042C47.058 34.4042 43.2617 35.5645 40.8722 37.3922L22.5749 32.8488C22.0075 31.0721 20.5254 29.5263 18.4534 28.4396L16.1177 31.9458C14.9256 33.5488 13.2166 34.4042 11.4258 34.4042C9.63498 34.4042 7.92594 33.5488 6.8528 32.115L4.39943 28.439C1.73989 29.8337 0 31.9732 0 34.4042C0 38.6111 5.11545 42.0214 11.4258 42.0214C16.5301 42.0214 20.8013 39.775 22.2672 36.6959L38.4313 40.7058C38.3106 41.1338 38.213 41.5678 38.213 42.0216C38.213 43.6062 38.992 45.0424 40.3307 46.2355L32.2574 50.8489C30.1694 50.0837 27.6558 49.6386 24.8828 49.6386C17.2842 49.6386 11.4258 52.9135 11.4258 57.2558C11.4258 61.5981 17.2842 64.9999 24.8828 64.9999C32.4815 64.9999 38.2129 61.5981 38.2129 57.2558C38.2129 55.6712 37.4339 54.235 36.0952 53.0418L44.1685 48.4285C46.2564 49.1935 48.7699 49.6386 51.543 49.6386C59.1416 49.6386 65 46.3637 65 42.0214C65 37.6791 59.1416 34.4042 51.543 34.4042Z" fill="#489842"/>
<path d="M9.90272 29.8332C10.2616 30.313 10.8269 30.5957 11.4258 30.5957C12.0246 30.5957 12.5899 30.313 12.9488 29.8332L20.5716 18.2749C22.0631 16.2869 22.8516 13.9196 22.8516 11.4258C22.8516 5.12522 17.7263 0 11.4258 0C5.12522 0 0 5.12522 0 11.4258C0 13.9177 0.788506 16.2869 2.27995 18.2749L9.90272 29.8332ZM11.4258 5.71289C14.576 5.71289 17.1387 8.27557 17.1387 11.4258C17.1387 14.576 14.576 17.1387 11.4258 17.1387C8.27557 17.1387 5.71289 14.576 5.71289 11.4258C5.71289 8.27557 8.27557 5.71289 11.4258 5.71289Z" fill="#489842"/>
</g>
<defs>
<clipPath id="clip0_1304_151">
<rect width="65" height="65" fill="white"/>
</clipPath>
</defs>
</svg>
